# xmcd
#
# Track frame offsets:
#        150
#        25946
#        46424
#        75563
#        108748
#        125256
#        144466
#        167935
#        185522
#        205660
#        218538
#        226750
#
# Disc length: 3280 seconds
#
# Revision: 4
# Processed by: cddbd v1.5.2PL0 Copyright (c) Steve Scherf et al.
# Submitted via: jack 3.1.1
#
DISCID=9d0cce0c
DTITLE=Joe Bonamassa - No Hits, No Hype, Just the Best [Classic Rock Issue 167 FEB 2012]
DYEAR=2012
DGENRE=Blues Rock
TTITLE0=Blue and Evil [Joe Bonamassa]
TTITLE1=Dust Bowl [Joe Bonamassa]
TTITLE2=The Ballad of John Henry [Joe Bonamassa]
TTITLE3=Sloe Gin [Joe Bonamassa]
TTITLE4=Miss You, Hate You [Joe Bonamassa]
TTITLE5=Black Lung Heartache [Joe Bonamassa]
TTITLE6=The Battle for Hadrian's Wall [Black Country Communion]
TTITLE7=One Last Soul [Black Country Communion]
TTITLE8=Sinner's Prayer [Beth Hart and Joe Bonamassa]
TTITLE9=Woke Up Dreaming [Joe Bonamassa]
TTITLE10=Palm Trees Helicopters and Gasoline [Joe Bonamassa]
TTITLE11=Asking Around for You [Joe Bonamassa]
EXTD=Location:  - UPC:  - Catalogue number: ROC167-02-12 - Label: Future
EXTD=Publishing - ASIN:  - Release Date: 2012 01 - Discogs:  - MUSICBRAINZ
EXTD=_ALBUMID:  - AMG:  - Free with Classic Rock Magazine January 2012
EXTT0=
EXTT1=
EXTT2=
EXTT3=
EXTT4=
EXTT5=
EXTT6=
EXTT7=
EXTT8=
EXTT9=
EXTT10=
EXTT11=
PLAYORDER=
